<svg xmlns="http://www.w3.org/2000/svg" viewBox="0 0 621.1 55.73"><defs><style>.cls-1{fill:#0891f0;}.cls-2{fill:#f2f1f1;}</style></defs><title>BigWing_logo_reversed_RGB</title><g id="Layer_2" data-name="Layer 2"><g id="Layer_1-2" data-name="Layer 1"><path class="cls-1" d="M0,5V3.35A2.45,2.45,0,0,1,2.45.9H60.54A2.45,2.45,0,0,1,63,3.35V29.5A2.45,2.45,0,0,1,60.54,32H27A27,27,0,0,1,0,5ZM54.81,9.08H8.63A18.82,18.82,0,0,0,27,23.77H54.81Z"/><path class="cls-1" d="M43.68,54.83H60.54A2.45,2.45,0,0,0,63,52.38V30.32a2.45,2.45,0,0,0-2.45-2.45H54.81V46.65H43.68a20,20,0,0,1-20-20H15.5A28.22,28.22,0,0,0,43.68,54.83Z"/><path class="cls-2" d="M143.88,40.45c0,8.72-7.26,14.43-18.06,14.43H106.68a2.52,2.52,0,0,1-2.78-2.78V3.63A2.52,2.52,0,0,1,106.68.85h16.67c10.34,0,18,5.25,18,14,0,5.56-3.17,10.58-10.19,12.35C139.64,28.1,143.88,33.81,143.88,40.45ZM112.08,7.56V24.62h8.18c9.18,0,12.66-4.55,12.66-9.19,0-5.17-4.48-7.87-9.65-7.87Zm23.47,32.57c0-4.79-4-9.34-13.59-9.34h-9.88V48.17h13.66C131.46,48.17,135.55,45,135.55,40.14Z"/><path class="cls-2" d="M185.64,52.1V3.63A2.52,2.52,0,0,1,188.41.85H191a2.52,2.52,0,0,1,2.78,2.78V52.1A2.52,2.52,0,0,1,191,54.88h-2.63A2.52,2.52,0,0,1,185.64,52.1Z"/><path class="cls-2" d="M235.57,28a27.94,27.94,0,0,1,28.1-28c6.64,0,12.27,1.24,17.52,4.48,1.47.93,1.77,2.24.93,3.86l-.77,1.31c-.85,1.7-2.16,1.93-3.86,1a25,25,0,0,0-13.82-3.32c-11,0-19.76,9.11-19.76,20.61,0,10.34,6.95,20.46,20.84,20.46a22.22,22.22,0,0,0,12.35-3.47V34.19H264.9a2.58,2.58,0,0,1-2.78-2.86v-.93a2.52,2.52,0,0,1,2.78-2.78h16.9a2.52,2.52,0,0,1,2.78,2.78V46c0,1.47-.62,2.7-2.39,4.09a29.81,29.81,0,0,1-17.83,5.63C247.61,55.73,235.57,43.23,235.57,28Z"/><path class="cls-2" d="M336.61,52.57,321.4,4.09c-.54-1.93.39-3.24,2.39-3.24h2.47a3.07,3.07,0,0,1,3.16,2.32l11.81,38,11.27-36.2a2.94,2.94,0,0,1,3.09-2.32h1.78a3,3,0,0,1,3.16,2.32l11.19,36.2,11.89-38A3,3,0,0,1,386.78.85h2.39c2,0,3,1.31,2.39,3.24L376.43,52.57a3,3,0,0,1-3.16,2.32h-2.08A3,3,0,0,1,368,52.57l-11.5-37.51L344.94,52.57a2.93,2.93,0,0,1-3.09,2.32h-2.16A2.93,2.93,0,0,1,336.61,52.57Z"/><path class="cls-2" d="M433.16,52.1V3.63A2.52,2.52,0,0,1,435.94.85h2.63a2.52,2.52,0,0,1,2.78,2.78V52.1a2.52,2.52,0,0,1-2.78,2.78h-2.63A2.52,2.52,0,0,1,433.16,52.1Z"/><path class="cls-2" d="M487,52.1V3.63A2.52,2.52,0,0,1,489.81.85H491a4,4,0,0,1,3.47,1.7l27.63,37.36V3.63A2.52,2.52,0,0,1,524.86.85h2.62a2.58,2.58,0,0,1,2.86,2.78V52.1a2.58,2.58,0,0,1-2.86,2.78H526.4a4,4,0,0,1-3.47-1.7L495.22,15.67V52.1a2.52,2.52,0,0,1-2.78,2.78h-2.62A2.52,2.52,0,0,1,487,52.1Z"/><path class="cls-2" d="M572.09,28a27.94,27.94,0,0,1,28.1-28c6.64,0,12.27,1.24,17.52,4.48,1.47.93,1.77,2.24.93,3.86l-.77,1.31c-.85,1.7-2.16,1.93-3.86,1a25,25,0,0,0-13.82-3.32c-11,0-19.76,9.11-19.76,20.61,0,10.34,6.95,20.46,20.84,20.46a22.22,22.22,0,0,0,12.35-3.47V34.19H601.42a2.58,2.58,0,0,1-2.78-2.86v-.93a2.52,2.52,0,0,1,2.78-2.78h16.9a2.52,2.52,0,0,1,2.78,2.78V46c0,1.47-.62,2.7-2.39,4.09a29.81,29.81,0,0,1-17.83,5.63C584.13,55.73,572.09,43.23,572.09,28Z"/></g></g></svg>