<svg id="Layer_1" data-name="Layer 1" xmlns="http://www.w3.org/2000/svg" viewBox="0 0 512 512"><defs><style>.cls-1{fill:#0891f0;}.cls-2{fill:#f2f1f1;}</style></defs><title>BigWing_icon_square_reversed_RGB</title><rect class="cls-1" width="512" height="512"/><path class="cls-2" d="M415.18,113H83.23a14,14,0,0,0-14,14v9.34a154,154,0,0,0,89.37,139.75C166.67,357.35,235.46,421,318.85,421h96.32a14,14,0,0,0,14-14V127A14,14,0,0,0,415.18,113ZM118.52,159.72H382.45v83.92H223.32A107.53,107.53,0,0,1,118.52,159.72ZM318.85,374.28c-52.78,0-97.19-36-110.29-84.64,4.86.46,9.78.72,14.76.72H382.45v83.92Z"/></svg>